<svg width="49" height="48" viewBox="0 0 49 48" fill="none" xmlns="http://www.w3.org/2000/svg">
<path d="M48 23.79C48 29.2269 46.1149 34.4955 42.6658 38.6982C39.2167 42.901 34.417 45.7778 29.0847 46.8385C23.7523 47.8991 18.2171 47.0781 13.4222 44.5152C8.62734 41.9522 4.86945 37.8061 2.78886 32.7831C0.70827 27.7601 0.433699 22.1711 2.01193 16.9683C3.59017 11.7656 6.92355 7.27103 11.4441 4.25047C15.9647 1.22992 21.3928 -0.129737 26.8034 0.403167C32.2141 0.936071 37.2726 3.32856 41.117 7.173L38.5485 9.74149C35.2983 6.49129 31.0217 4.46861 26.4474 4.01808C21.8731 3.56754 17.284 4.71704 13.4622 7.2707C9.64035 9.82437 6.82221 13.6242 5.48792 18.0228C4.15364 22.4213 4.38577 27.1464 6.14476 31.393C7.90376 35.6396 11.0808 39.1449 15.1345 41.3117C19.1882 43.4784 23.8679 44.1726 28.376 43.2759C32.8842 42.3791 36.9419 39.947 39.8579 36.3939C42.7739 32.8408 44.3676 28.3865 44.3676 23.79H48Z" fill="white"/>
<path d="M16.0158 39.0959C12.4747 37.133 9.72374 34.003 8.23166 30.2393C6.73959 26.4755 6.5987 22.3109 7.83301 18.4549C9.06732 14.5989 11.6005 11.2902 15.0008 9.09252C18.4011 6.89484 22.4583 5.94418 26.481 6.4025C30.5037 6.86083 34.243 8.69979 37.0618 11.6061C39.8807 14.5123 41.6046 18.3061 41.9398 22.3409C42.2751 26.3757 41.201 30.4019 38.9005 33.7336C36.6 37.0652 33.2155 39.4961 29.3236 40.6121L28.578 38.0119C31.8683 37.0684 34.7297 35.0133 36.6746 32.1966C38.6195 29.3799 39.5276 25.976 39.2442 22.5649C38.9607 19.1537 37.5033 15.9464 35.1201 13.4893C32.737 11.0323 29.5757 9.47758 26.1748 9.0901C22.7739 8.70261 19.3438 9.50633 16.4691 11.3643C13.5943 13.2223 11.4527 16.0196 10.4092 19.2795C9.3657 22.5395 9.48481 26.0604 10.7463 29.2424C12.0077 32.4244 14.3334 35.0706 17.3272 36.73L16.0158 39.0959Z" fill="white"/>
<path d="M24.5 11.29C27.392 11.29 30.1944 12.2927 32.4299 14.1274C34.6654 15.962 36.1957 18.515 36.7598 21.3514C37.324 24.1877 36.8873 27.132 35.5241 29.6825C34.1608 32.2329 31.9554 34.2318 29.2836 35.3385C26.6118 36.4452 23.6389 36.5912 20.8715 35.7517C18.1041 34.9123 15.7133 33.1392 14.1067 30.7346C12.5 28.3301 11.7768 25.4428 12.0602 22.5648C12.3437 19.6868 13.6163 16.9961 15.6612 14.9512L17.0274 16.3174C15.2986 18.0462 14.2227 20.321 13.983 22.7542C13.7434 25.1873 14.3548 27.6283 15.7132 29.6612C17.0715 31.6941 19.0927 33.1931 21.4323 33.9028C23.772 34.6125 26.2854 34.4891 28.5442 33.5534C30.803 32.6178 32.6675 30.9279 33.8201 28.7717C34.9726 26.6154 35.3418 24.1263 34.8648 21.7283C34.3879 19.3303 33.0942 17.172 31.2042 15.6209C29.3143 14.0699 26.945 13.2221 24.5 13.2221L24.5 11.29Z" fill="white"/>
<path d="M17.0301 19.7342C17.9684 18.0059 19.477 16.6565 21.2987 15.9159C23.1204 15.1753 25.1426 15.0892 27.0206 15.6723C28.8987 16.2555 30.5165 17.4718 31.5983 19.114C32.6801 20.7562 33.159 22.7227 32.9535 24.6785C32.7479 26.6342 31.8706 28.4582 30.471 29.8396C29.0714 31.221 27.2361 32.0744 25.2778 32.2543C23.3195 32.4343 21.3594 31.9297 19.7315 30.8264C18.1036 29.7232 16.9086 28.0897 16.3501 26.2041L17.7273 25.7962C18.1914 27.3631 19.1845 28.7206 20.5373 29.6374C21.8901 30.5542 23.519 30.9736 25.1464 30.824C26.7737 30.6745 28.2989 29.9653 29.462 28.8173C30.6251 27.6694 31.3542 26.1536 31.525 24.5284C31.6958 22.9031 31.2978 21.2689 30.3988 19.9042C29.4998 18.5395 28.1554 17.5287 26.5947 17.0441C25.034 16.5595 23.3535 16.631 21.8396 17.2465C20.3258 17.862 19.0721 18.9833 18.2924 20.4195L17.0301 19.7342Z" fill="white"/>
<path d="M28.2197 26.3227C27.6337 27.1833 26.7675 27.8141 25.7687 28.1076C24.7698 28.4011 23.7001 28.3392 22.7417 27.9324C21.7834 27.5256 20.9958 26.7991 20.513 25.8767C20.0303 24.9543 19.8823 23.893 20.0943 22.8737C20.3063 21.8544 20.8652 20.9402 21.6757 20.2868C22.4862 19.6334 23.4982 19.2812 24.5393 19.2903C25.5803 19.2994 26.586 19.6691 27.385 20.3366C28.184 21.0041 28.7269 21.9279 28.921 22.9507L28.0934 23.1079C27.9356 22.2765 27.4944 21.5256 26.845 20.9831C26.1955 20.4406 25.3781 20.14 24.5319 20.1326C23.6858 20.1252 22.8632 20.4115 22.2044 20.9426C21.5456 21.4737 21.0914 22.2168 20.9191 23.0453C20.7467 23.8737 20.867 24.7363 21.2594 25.4861C21.6517 26.2358 22.2919 26.8263 23.0709 27.1569C23.8498 27.4876 24.7193 27.5379 25.5312 27.2993C26.3431 27.0608 27.0471 26.5481 27.5234 25.8486L28.2197 26.3227Z" fill="white"/>
<path d="M23.7068 21.4192C24.2553 21.2357 24.8504 21.248 25.3909 21.4541C25.9313 21.6602 26.3835 22.0473 26.6705 22.5495C26.9575 23.0517 27.0615 23.6378 26.9648 24.208C26.8681 24.7783 26.5767 25.2974 26.1402 25.6768C25.7037 26.0563 25.1491 26.2726 24.5709 26.289C23.9928 26.3054 23.4268 26.1209 22.9695 25.7668C22.5122 25.4127 22.1918 24.911 22.0629 24.3471C21.934 23.7833 22.0046 23.1922 22.2627 22.6746L23.1394 23.1117C22.9825 23.4265 22.9395 23.7859 23.0179 24.1288C23.0963 24.4717 23.2911 24.7768 23.5693 24.9922C23.8474 25.2075 24.1916 25.3197 24.5431 25.3098C24.8947 25.2998 25.232 25.1682 25.4975 24.9375C25.7629 24.7067 25.9402 24.391 25.999 24.0442C26.0578 23.6975 25.9945 23.341 25.82 23.0356C25.6454 22.7303 25.3704 22.4948 25.0418 22.3695C24.7131 22.2442 24.3512 22.2367 24.0176 22.3483L23.7068 21.4192Z" fill="white"/>
<circle cx="24.5" cy="23.79" r="0.5" transform="rotate(-180 24.5 23.79)" fill="white"/>
</svg>
